inDegrees=no
num_controls=7
num_derivatives=13
num_iterations=128
num_multipliers=7
num_parameters=0
num_slacks=7
num_states=26
objective=5.248975
objective_accelerations=0.367877
objective_balance=0.033220
objective_effort=0.174333
objective_height=4.584227
objective_ligament=0.089319
solver_duration=1422.570168
status=Solve_Succeeded
success=true
DataType=double
version=3
OpenSimVersion=4.4-2022-07-23-0e9fedc
endheader
time	/jointset/ground_pelvis/pelvis_tilt/value	/jointset/ground_pelvis/pelvis_tx/value	/jointset/ground_pelvis/pelvis_ty/value	/jointset/hip_l/hip_flexion_l/value	/jointset/hip_l/hip_adduction_l/value	/jointset/hip_l/hip_rotation_l/value	/jointset/back/lumbar_extension/value	/jointset/patellofemoral_l/patellar_flexion_l/value	/jointset/knee_l/knee_flexion_l/value	/jointset/knee_l/knee_adduction_l/value	/jointset/knee_l/knee_rotation_l/value	/jointset/ankle_l/ankle_angle_l/value	/jointset/subtalar_l/subtalar_angle_l/value	/jointset/ground_pelvis/pelvis_tilt/speed	/jointset/ground_pelvis/pelvis_tx/speed	/jointset/ground_pelvis/pelvis_ty/speed	/jointset/hip_l/hip_flexion_l/speed	/jointset/hip_l/hip_adduction_l/speed	/jointset/hip_l/hip_rotation_l/speed	/jointset/back/lumbar_extension/speed	/jointset/patellofemoral_l/patellar_flexion_l/speed	/jointset/knee_l/knee_flexion_l/speed	/jointset/knee_l/knee_adduction_l/speed	/jointset/knee_l/knee_rotation_l/speed	/jointset/ankle_l/ankle_angle_l/speed	/jointset/subtalar_l/subtalar_angle_l/speed	/forceset/tau_hip_flexion_l	/forceset/tau_hip_adduction_l	/forceset/tau_hip_rotation_l	/forceset/tau_knee_flexion_l	/forceset/tau_ankle_angle_l	/forceset/tau_subtalar_angle_l	/forceset/tau_lumbar_extension	lambda_cid13_p0	lambda_cid13_p1	lambda_cid13_p2	lambda_cid13_p3	lambda_cid13_p4	lambda_cid13_p5	lambda_cid14_p0	/jointset/ground_pelvis/pelvis_tilt/accel	/jointset/ground_pelvis/pelvis_tx/accel	/jointset/ground_pelvis/pelvis_ty/accel	/jointset/hip_l/hip_flexion_l/accel	/jointset/hip_l/hip_adduction_l/accel	/jointset/hip_l/hip_rotation_l/accel	/jointset/back/lumbar_extension/accel	/jointset/patellofemoral_l/patellar_flexion_l/accel	/jointset/knee_l/knee_flexion_l/accel	/jointset/knee_l/knee_adduction_l/accel	/jointset/knee_l/knee_rotation_l/accel	/jointset/ankle_l/ankle_angle_l/accel	/jointset/subtalar_l/subtalar_angle_l/accel	gamma_cid13_p0	gamma_cid13_p1	gamma_cid13_p2	gamma_cid13_p3	gamma_cid13_p4	gamma_cid13_p5	gamma_cid14_p0
1.5	-0.1615489206375037	0.0857257370031918	0.8202714193358863	0.6372786995210318	-0.4427034571776526	-0.2944920465162943	-0.1976714794763649	0.6755240370274104	0.6755240370273335	-0.1623422547831898	-0.1665853481029206	0.2365066797599324	0.03705210361518108	0.1309220349154419	0.05163913817629533	0.2955484546115313	-1.199037801801825	0.2609624583342283	-0.662109698950425	0.3509607108867872	-1.653215604768978	-1.653215604769356	-0.02108497752361483	0.05182893030944359	-0.7030750284502214	-0.09628850663637639	-0.07260863484728272	0.04272780861011064	-0.009935214735297982	-0.2040688781449313	-0.0458534777202006	0.02458945271194067	0.09790286918131627	-47.54200391668852	-7.643875582606079	6.923963321581769	3.678160482233766	-531.8290657532095	-68.35442546234944	-31.51489158557624	0.05563949477091122	0.1530685199181673	-0.2980114190769142	-0.5261598856463454	0.5755837401549491	-0.1178287722176806	0.8428528054173965	-1.200880822105144	-1.200880822105171	-0.07607653453579394	0.1518342132991239	-0.5266157609711599	0.4297364717344676	1.037895867612802e-07	9.272299148271453e-07	-2.486591764725773e-07	1.844154882373668e-07	5.087367120740055e-08	5.510141961341813e-07	1.151192363702518e-07
1.51	-0.1602370378832875	0.08624971609194979	0.8232113531567471	0.6252636197412591	-0.4400656212219825	-0.3011191278156125	-0.1941202311763719	0.6589342383865782	0.658934238386285	-0.162557144605691	-0.1660608653069867	0.2294504620658825	0.03611035762251591	0.1314446489218898	0.05314806241525673	0.2923776503535986	-1.203803653263938	0.2665804276382339	-0.6632103087277622	0.3592331040416622	-1.664510338413275	-1.664510338413572	-0.02189516826437183	0.05305860464606982	-0.7080697248270605	-0.09204547958223651	-0.07003912740794151	0.04099918227609055	-0.009931334420495408	-0.2014279648966913	-0.04323423804231208	0.02419224253859957	0.09552015790428452	-46.62369190720411	-7.666903257451943	6.96732282330697	3.396753587054917	-529.8188901015775	-68.44757231102152	-32.24403493578008	0.04907330937446464	0.1485534208293936	-0.3357100011779143	-0.425643776792707	0.5511777845946716	-0.091650210334086	0.8110558101959134	-1.058723306189011	-1.058723306176765	-0.0836754010920655	0.1071553680263398	-0.4710423345246225	0.4237263037097091	8.693183957535338e-08	9.737381039637197e-07	-1.805871375242107e-07	2.0004416498339e-07	2.986682384566065e-08	5.344995484861232e-07	1.098202267920371e-07
1.52	-0.1589202287978527	0.08678853423208625	0.826117759920623	0.6132061122468008	-0.4373723507214608	-0.3077543098386702	-0.1904879342968964	0.6422385016751923	0.6422385016746678	-0.1627801733470576	-0.1655243615028378	0.2223472682563672	0.03521146999668299	0.1319073011600535	0.05460694845199447	0.2888430432145347	-1.20752334473801	0.2720493673050952	-0.6637298436987937	0.367170426783472	-1.674403218881455	-1.67440321888167	-0.02271276129498457	0.05423313194997879	-0.712470251543274	-0.08771683326985631	-0.06746961996861441	0.03927055594207282	-0.009927454105767019	-0.1987870516484515	-0.04061499836442553	0.02379503236526156	0.0931374466272422	-45.7122001569736	-7.689302928745291	7.011229594240924	3.110968595977212	-527.9242227459557	-68.57169268364859	-32.96228356413071	0.04364714111406694	0.1430608794733929	-0.3707719953031605	-0.3169278880380952	0.5457778127260914	-0.001613810956551374	0.7758387228044069	-0.9205101868816685	-0.920510186881652	-0.07755699250694702	0.1408048067556873	-0.4077818288461066	0.4468603233825107	7.193967733782379e-08	1.016692742645746e-06	-1.238169645960879e-07	2.137160797294399e-07	1.234942872629307e-08	5.204321414562659e-07	1.056598707055379e-07
1.53	-0.1575991586786417	0.08734167031653772	0.8289870275956135	0.6011167822559336	-0.4346251742563048	-0.3143919919370504	-0.1867779298891795	0.6254510247140552	0.625451024713782	-0.1630112624638209	-0.1649765707909003	0.2152031130223585	0.03435630451989298	0.1322957678827489	0.05600956398004649	0.284953568146642	-1.210162021853494	0.27735588930676	-0.6637110546786021	0.3747689360143864	-1.682845928429546	-1.682845928429701	-0.02350472734975163	0.05531361377584736	-0.7162565118496355	-0.08330467120004445	-0.06484773871967349	0.03751286880057515	-0.009950767147121769	-0.1961452906230268	-0.03789839537004262	0.02330711312532386	0.09070905734463147	-44.7723980411096	-7.671429439094303	7.042049892140882	2.829267628570816	-526.0171937559351	-68.62664265937073	-33.66624763206788	0.0347781611056082	0.1373025236811474	-0.4065755787849963	-0.2102707902457048	0.5184801690367878	0.01803646593733806	0.7426292115852748	-0.7692348275329757	-0.7692348275240246	-0.07980552556969682	0.08994810601849419	-0.348369394683783	0.4399686538535534	5.892969910796624e-08	1.055871733969815e-06	-7.905502431447374e-08	2.253089348505182e-07	-1.460423385553989e-09	5.089649275832465e-07	1.027093339539865e-07
1.54	-0.1562745375475555	0.08790852068311172	0.8318156924566744	0.5890064788605215	-0.4318258544161039	-0.3210266039037401	-0.1829937859514836	0.6085865039597029	0.6085865039596537	-0.1632502290638936	-0.164418319613558	0.2080242309326561	0.03354557556481552	0.1326175035357797	0.05734980487650045	0.280722480428558	-1.211718025646667	0.2824780423144301	-0.6631158173611956	0.3819983327793136	-1.689811977528048	-1.689811977528143	-0.02428825794883948	0.05632522502236029	-0.7194156226821016	-0.07882952892730874	-0.0622258574707153	0.03575518165909073	-0.009974080188733692	-0.1935035295975724	-0.03518179237565502	0.02281919388541008	0.08828066806203134	-43.84044091450583	-7.652837703595464	7.073504934539629	2.545380443829258	-524.2421412306213	-68.71392902467885	-34.35241228211953	0.03030092718115256	0.1305859531537461	-0.4390945253414402	-0.1003932235757138	0.5089040139271838	0.1136758484864321	0.7020162296070007	-0.6251780969638742	-0.6251780969638157	-0.07586990137111174	0.1270306908845724	-0.2823519340670403	0.4594563639672595	5.496403565836543e-08	1.083212243524387e-06	-7.471998609760357e-08	2.311176863561864e-07	-3.520155187203471e-09	5.126432097572614e-07	1.04172059732227e-07
1.55	-0.1549470173096326	0.08848845128728351	0.8346003891815535	0.5768859905571945	-0.4289763161291767	-0.3276523609209349	-0.1791393057114543	0.5916597630039421	0.5916597630041244	-0.1634970982542248	-0.1638502979287708	0.2008169235106729	0.03277983846491162	0.1328741993981209	0.05862425967072184	0.276164517963321	-1.212194518154455	0.2873940466669503	-0.6619438749701395	0.3888277298795627	-1.695278506923089	-1.695278506923094	-0.02508011734125276	0.05726418650863713	-0.7219355877044636	-0.07430877591891502	-0.05949571075373316	0.03376052772001453	-0.01003854776055617	-0.1909776248029185	-0.03228473155822851	0.02234634766539859	0.08576859409535506	-42.8509658589872	-7.651633763806271	7.108611583725343	2.226467809748423	-522.4739895083919	-68.86611586588432	-35.01711960024867	0.02147758998316271	0.1241127567653317	-0.4719962276640919	0.006463152491142293	0.477516203216814	0.1328044068813215	0.6629036483702049	-0.4687572270448087	-0.4687572270311359	-0.07986464879862482	0.07505899559887833	-0.2202413286404113	0.4495935603430083	6.141899575992944e-08	1.096912763214103e-06	-1.169637698248923e-07	2.30262144565839e-07	7.958295107678291e-09	5.337717373767713e-07	1.107196314687058e-07
1.56	-0.153617305378244	0.08908077394223933	0.8373379364576703	0.5647662854121607	-0.4260787042872646	-0.3342636283197246	-0.1752186310607961	0.5746860833809763	0.5746860833813886	-0.163751690176594	-0.1632733406055124	0.1935877319300021	0.03205955065330512	0.1330558422293705	0.05982821503330928	0.271292590676022	-1.211561393987382	0.292092753311568	-0.6602178936804398	0.3952372149052647	-1.699199710968954	-1.699199710968868	-0.02583280435855188	0.05811235271890447	-0.7237924544196105	-0.06973967126781572	-0.05676556403677041	0.03176587378094384	-0.01010301533231471	-0.1884517200082824	-0.02938767074080439	0.02187350144539178	0.08325652012866266	-41.86903579339905	-7.649294856431225	7.143750597873145	1.903774980997154	-520.8343550840601	-69.05092770460922	-35.65665432997315	0.01529032096283413	0.116486066826926	-0.5018874897538558	0.1215301113965929	0.4654444723466821	0.2244836282152076	0.6180338146975872	-0.3161130271285924	-0.3161130271285908	-0.06803542634828727	0.1088716356826936	-0.1497322726240286	0.4691266925083651	6.088175751538774e-08	1.113870442250802e-06	-1.314972774811014e-07	2.323276674842965e-07	1.078236998084457e-08	5.416252631685172e-07	1.137430826514827e-07
1.57	-0.1522861939248023	0.08968476566350275	0.840025241406924	0.5526585285224586	-0.4231352546125126	-0.3408549206836164	-0.1712359850187281	0.5576810311115036	0.5576810311116264	-0.1640136179236117	-0.1626884165508235	0.186343332575195	0.03138515963989711	0.1331534361617601	0.06095625725683398	0.2661213780419968	-1.209802668323156	0.2965540090706787	-0.6579437057123986	0.4012153559431739	-1.701544455586219	-1.701544455586119	-0.0265516832036666	0.0588600999552218	-0.7249734475566142	-0.06513576674743657	-0.05398117356437079	0.02972194678939375	-0.01020055148249369	-0.1859681126531048	-0.02636187401836406	0.02131209605970755	0.0807045347765841	-40.85124497564398	-7.609458468916162	7.166839489303277	1.577641163621555	-519.2254956441465	-69.17787222424931	-36.26723187886909	0.005013362614925619	0.1089307728612148	-0.5317916829486943	0.2311095414139324	0.429879986820644	0.2435085506480435	0.5762086137379386	-0.1537343914321582	-0.153734391430108	-0.07348484308332295	0.05584467973757667	-0.08515242793507727	0.4562674053045752	5.160427133821402e-08	1.134899570471229e-06	-1.113929400484613e-07	2.380445212887598e-07	2.788475576866621e-09	5.328850366755581e-07	1.123613831421323e-07
